<mxfile host="app.diagrams.net" agent="Mozilla/5.0 (Macintosh; Intel Mac OS X 10_15_7) AppleWebKit/537.36 (KHTML, like Gecko) Chrome/127.0.0.0 Safari/537.36 Edg/127.0.0.0" version="24.7.6">
  <diagram id="prtHgNgQTEPvFCAcTncT" name="Page-1">
    <mxGraphModel dx="721" dy="438" grid="1" gridSize="10" guides="1" tooltips="1" connect="1" arrows="1" fold="1" page="1" pageScale="1" pageWidth="827" pageHeight="1169" math="0" shadow="0">
      <root>
        <mxCell id="0" />
        <mxCell id="1" parent="0" />
        <mxCell id="4-QW9x0aCZNzlzGPrkt--1" value="循环额度" style="swimlane;childLayout=stackLayout;resizeParent=1;resizeParentMax=0;startSize=20;html=1;labelBackgroundColor=none;fillColor=#B2C9AB;strokeColor=#788AA3;fontColor=#46495D;" vertex="1" parent="1">
          <mxGeometry x="160" y="300" width="640" height="1210" as="geometry" />
        </mxCell>
        <mxCell id="4-QW9x0aCZNzlzGPrkt--2" value="ugchanprod" style="swimlane;startSize=20;html=1;labelBackgroundColor=none;fillColor=#B2C9AB;strokeColor=#788AA3;fontColor=#46495D;" vertex="1" parent="4-QW9x0aCZNzlzGPrkt--1">
          <mxGeometry y="20" width="200" height="1190" as="geometry" />
        </mxCell>
        <mxCell id="4-QW9x0aCZNzlzGPrkt--5" value="进件申请发起" style="rounded=0;whiteSpace=wrap;html=1;strokeColor=#788AA3;fontColor=#46495D;fillColor=#B2C9AB;" vertex="1" parent="4-QW9x0aCZNzlzGPrkt--2">
          <mxGeometry x="57.5" y="50" width="85" height="40" as="geometry" />
        </mxCell>
        <mxCell id="4-QW9x0aCZNzlzGPrkt--27" value="放款结果查询" style="whiteSpace=wrap;html=1;fillColor=#B2C9AB;strokeColor=#788AA3;fontColor=#46495D;rounded=0;" vertex="1" parent="4-QW9x0aCZNzlzGPrkt--2">
          <mxGeometry x="60" y="520" width="80" height="50" as="geometry" />
        </mxCell>
        <mxCell id="4-QW9x0aCZNzlzGPrkt--45" style="edgeStyle=orthogonalEdgeStyle;shape=connector;curved=0;rounded=1;orthogonalLoop=1;jettySize=auto;html=1;entryX=0.5;entryY=0;entryDx=0;entryDy=0;strokeColor=#788AA3;align=center;verticalAlign=middle;fontFamily=Helvetica;fontSize=11;fontColor=#46495D;labelBackgroundColor=default;endArrow=classic;fillColor=#B2C9AB;" edge="1" parent="4-QW9x0aCZNzlzGPrkt--2" source="4-QW9x0aCZNzlzGPrkt--33" target="4-QW9x0aCZNzlzGPrkt--44">
          <mxGeometry relative="1" as="geometry" />
        </mxCell>
        <mxCell id="4-QW9x0aCZNzlzGPrkt--33" value="用户额度查询" style="whiteSpace=wrap;html=1;fillColor=#B2C9AB;strokeColor=#788AA3;fontColor=#46495D;rounded=0;" vertex="1" parent="4-QW9x0aCZNzlzGPrkt--2">
          <mxGeometry x="60" y="680" width="80" height="50" as="geometry" />
        </mxCell>
        <mxCell id="4-QW9x0aCZNzlzGPrkt--41" value="额度变更/过期回调" style="whiteSpace=wrap;html=1;fillColor=#B2C9AB;strokeColor=#788AA3;fontColor=#46495D;rounded=0;" vertex="1" parent="4-QW9x0aCZNzlzGPrkt--2">
          <mxGeometry x="60" y="590" width="80" height="50" as="geometry" />
        </mxCell>
        <mxCell id="4-QW9x0aCZNzlzGPrkt--47" value="是" style="edgeStyle=orthogonalEdgeStyle;shape=connector;curved=0;rounded=1;orthogonalLoop=1;jettySize=auto;html=1;strokeColor=#788AA3;align=center;verticalAlign=middle;fontFamily=Helvetica;fontSize=11;fontColor=#46495D;labelBackgroundColor=default;endArrow=classic;fillColor=#B2C9AB;" edge="1" parent="4-QW9x0aCZNzlzGPrkt--2" source="4-QW9x0aCZNzlzGPrkt--44" target="4-QW9x0aCZNzlzGPrkt--46">
          <mxGeometry relative="1" as="geometry" />
        </mxCell>
        <mxCell id="4-QW9x0aCZNzlzGPrkt--44" value="额度是否充足" style="rhombus;whiteSpace=wrap;html=1;strokeColor=#788AA3;fontFamily=Helvetica;fontSize=11;fontColor=#46495D;labelBackgroundColor=default;fillColor=#B2C9AB;" vertex="1" parent="4-QW9x0aCZNzlzGPrkt--2">
          <mxGeometry x="45" y="770" width="110" height="55" as="geometry" />
        </mxCell>
        <mxCell id="4-QW9x0aCZNzlzGPrkt--46" value="&lt;span style=&quot;font-size: 12px; background-color: rgb(251, 251, 251);&quot;&gt;放款申请发起&lt;/span&gt;" style="whiteSpace=wrap;html=1;fontSize=11;fillColor=#B2C9AB;strokeColor=#788AA3;fontColor=#46495D;labelBackgroundColor=default;" vertex="1" parent="4-QW9x0aCZNzlzGPrkt--2">
          <mxGeometry x="55" y="880" width="90" height="50" as="geometry" />
        </mxCell>
        <mxCell id="4-QW9x0aCZNzlzGPrkt--3" value="apiopfcore" style="swimlane;startSize=20;html=1;labelBackgroundColor=none;fillColor=#B2C9AB;strokeColor=#788AA3;fontColor=#46495D;" vertex="1" parent="4-QW9x0aCZNzlzGPrkt--1">
          <mxGeometry x="200" y="20" width="270" height="1190" as="geometry" />
        </mxCell>
        <mxCell id="4-QW9x0aCZNzlzGPrkt--13" value="" style="edgeStyle=orthogonalEdgeStyle;rounded=0;orthogonalLoop=1;jettySize=auto;html=1;strokeColor=#788AA3;fontColor=#46495D;fillColor=#B2C9AB;" edge="1" parent="4-QW9x0aCZNzlzGPrkt--3" source="4-QW9x0aCZNzlzGPrkt--8" target="4-QW9x0aCZNzlzGPrkt--12">
          <mxGeometry relative="1" as="geometry" />
        </mxCell>
        <mxCell id="4-QW9x0aCZNzlzGPrkt--8" value="进件接口" style="rounded=0;whiteSpace=wrap;html=1;strokeColor=#788AA3;fontColor=#46495D;fillColor=#B2C9AB;" vertex="1" parent="4-QW9x0aCZNzlzGPrkt--3">
          <mxGeometry x="92.5" y="50" width="85" height="40" as="geometry" />
        </mxCell>
        <mxCell id="4-QW9x0aCZNzlzGPrkt--12" value="保存进件数据、授信审核" style="rounded=0;whiteSpace=wrap;html=1;strokeColor=#788AA3;fontColor=#46495D;fillColor=#B2C9AB;" vertex="1" parent="4-QW9x0aCZNzlzGPrkt--3">
          <mxGeometry x="92.5" y="120" width="85" height="40" as="geometry" />
        </mxCell>
        <mxCell id="4-QW9x0aCZNzlzGPrkt--10" value="进件结果查询" style="rounded=0;whiteSpace=wrap;html=1;strokeColor=#788AA3;fontColor=#46495D;fillColor=#B2C9AB;" vertex="1" parent="4-QW9x0aCZNzlzGPrkt--3">
          <mxGeometry x="-142.5" y="190" width="85" height="40" as="geometry" />
        </mxCell>
        <mxCell id="4-QW9x0aCZNzlzGPrkt--35" value="" style="edgeStyle=orthogonalEdgeStyle;shape=connector;curved=0;rounded=1;orthogonalLoop=1;jettySize=auto;html=1;strokeColor=#788AA3;align=center;verticalAlign=middle;fontFamily=Helvetica;fontSize=11;fontColor=#46495D;labelBackgroundColor=default;endArrow=classic;fillColor=#B2C9AB;entryX=0.473;entryY=-0.005;entryDx=0;entryDy=0;entryPerimeter=0;" edge="1" parent="4-QW9x0aCZNzlzGPrkt--3" source="4-QW9x0aCZNzlzGPrkt--14" target="4-QW9x0aCZNzlzGPrkt--36">
          <mxGeometry relative="1" as="geometry">
            <mxPoint x="135" y="250" as="targetPoint" />
          </mxGeometry>
        </mxCell>
        <mxCell id="4-QW9x0aCZNzlzGPrkt--14" value="审核结论查询接口&lt;div&gt;&lt;br&gt;&lt;/div&gt;" style="rounded=0;whiteSpace=wrap;html=1;strokeColor=#788AA3;fontColor=#46495D;fillColor=#B2C9AB;" vertex="1" parent="4-QW9x0aCZNzlzGPrkt--3">
          <mxGeometry x="71.25" y="190" width="127.5" height="40" as="geometry" />
        </mxCell>
        <mxCell id="4-QW9x0aCZNzlzGPrkt--15" style="edgeStyle=orthogonalEdgeStyle;rounded=0;orthogonalLoop=1;jettySize=auto;html=1;entryX=0;entryY=0.5;entryDx=0;entryDy=0;strokeColor=#788AA3;fontColor=#46495D;fillColor=#B2C9AB;" edge="1" parent="4-QW9x0aCZNzlzGPrkt--3" source="4-QW9x0aCZNzlzGPrkt--10" target="4-QW9x0aCZNzlzGPrkt--14">
          <mxGeometry relative="1" as="geometry" />
        </mxCell>
        <mxCell id="4-QW9x0aCZNzlzGPrkt--16" value="进件单号" style="edgeLabel;html=1;align=center;verticalAlign=middle;resizable=0;points=[];strokeColor=#788AA3;fontColor=#46495D;fillColor=#B2C9AB;" vertex="1" connectable="0" parent="4-QW9x0aCZNzlzGPrkt--15">
          <mxGeometry x="-0.3373" y="1" relative="1" as="geometry">
            <mxPoint x="18" y="1" as="offset" />
          </mxGeometry>
        </mxCell>
        <mxCell id="4-QW9x0aCZNzlzGPrkt--50" style="edgeStyle=orthogonalEdgeStyle;shape=connector;curved=0;rounded=1;orthogonalLoop=1;jettySize=auto;html=1;strokeColor=#788AA3;align=center;verticalAlign=middle;fontFamily=Helvetica;fontSize=11;fontColor=#46495D;labelBackgroundColor=default;endArrow=classic;fillColor=#B2C9AB;" edge="1" parent="4-QW9x0aCZNzlzGPrkt--3" source="4-QW9x0aCZNzlzGPrkt--25" target="4-QW9x0aCZNzlzGPrkt--49">
          <mxGeometry relative="1" as="geometry" />
        </mxCell>
        <mxCell id="4-QW9x0aCZNzlzGPrkt--25" value="关联进件单号、得物放款申请号、我方放款主订单号、我方借据号" style="whiteSpace=wrap;html=1;fillColor=#B2C9AB;strokeColor=#788AA3;fontColor=#46495D;rounded=0;" vertex="1" parent="4-QW9x0aCZNzlzGPrkt--3">
          <mxGeometry x="67.83" y="400" width="134.37" height="50" as="geometry" />
        </mxCell>
        <mxCell id="4-QW9x0aCZNzlzGPrkt--29" value="放款结果查询接口" style="whiteSpace=wrap;html=1;fillColor=#B2C9AB;strokeColor=#788AA3;fontColor=#46495D;rounded=0;" vertex="1" parent="4-QW9x0aCZNzlzGPrkt--3">
          <mxGeometry x="90.63" y="520" width="78.75" height="50" as="geometry" />
        </mxCell>
        <mxCell id="4-QW9x0aCZNzlzGPrkt--39" value="" style="edgeStyle=orthogonalEdgeStyle;shape=connector;curved=0;rounded=1;orthogonalLoop=1;jettySize=auto;html=1;strokeColor=#788AA3;align=center;verticalAlign=middle;fontFamily=Helvetica;fontSize=11;fontColor=#46495D;labelBackgroundColor=default;endArrow=classic;fillColor=#B2C9AB;" edge="1" parent="4-QW9x0aCZNzlzGPrkt--3" source="4-QW9x0aCZNzlzGPrkt--34" target="4-QW9x0aCZNzlzGPrkt--38">
          <mxGeometry relative="1" as="geometry" />
        </mxCell>
        <mxCell id="4-QW9x0aCZNzlzGPrkt--34" value="授信审核结论查询接口或者单独的额度查询接口" style="whiteSpace=wrap;html=1;fillColor=#f8cecc;strokeColor=#b85450;rounded=0;" vertex="1" parent="4-QW9x0aCZNzlzGPrkt--3">
          <mxGeometry x="61.25" y="680" width="137.5" height="50" as="geometry" />
        </mxCell>
        <mxCell id="4-QW9x0aCZNzlzGPrkt--36" value="&lt;div&gt;查询进件结果、可用额度、授信额度&lt;br&gt;&lt;/div&gt;" style="rounded=0;whiteSpace=wrap;html=1;strokeColor=#788AA3;fontColor=#46495D;fillColor=#B2C9AB;" vertex="1" parent="4-QW9x0aCZNzlzGPrkt--3">
          <mxGeometry x="74.69" y="265" width="127.5" height="40" as="geometry" />
        </mxCell>
        <mxCell id="4-QW9x0aCZNzlzGPrkt--38" value="需不需要做额度有效期限制，过期了怎么返回" style="whiteSpace=wrap;html=1;fillColor=#f8cecc;strokeColor=#b85450;rounded=0;" vertex="1" parent="4-QW9x0aCZNzlzGPrkt--3">
          <mxGeometry x="61.25" y="770" width="137.5" height="50" as="geometry" />
        </mxCell>
        <mxCell id="4-QW9x0aCZNzlzGPrkt--40" value="授信额度有效期变更/过期回调" style="whiteSpace=wrap;html=1;fillColor=#f8cecc;strokeColor=#b85450;rounded=0;" vertex="1" parent="4-QW9x0aCZNzlzGPrkt--3">
          <mxGeometry x="61.24999999999999" y="590" width="137.5" height="50" as="geometry" />
        </mxCell>
        <mxCell id="4-QW9x0aCZNzlzGPrkt--49" value="需不需要做额度有效期限制" style="whiteSpace=wrap;html=1;fillColor=#f8cecc;strokeColor=#b85450;rounded=0;fontFamily=Helvetica;fontSize=11;labelBackgroundColor=default;" vertex="1" parent="4-QW9x0aCZNzlzGPrkt--3">
          <mxGeometry x="71.25" y="470" width="125.62" height="30" as="geometry" />
        </mxCell>
        <mxCell id="4-QW9x0aCZNzlzGPrkt--54" style="edgeStyle=orthogonalEdgeStyle;shape=connector;curved=0;rounded=1;orthogonalLoop=1;jettySize=auto;html=1;entryX=0.5;entryY=0;entryDx=0;entryDy=0;strokeColor=#788AA3;align=center;verticalAlign=middle;fontFamily=Helvetica;fontSize=11;fontColor=#46495D;labelBackgroundColor=default;endArrow=classic;fillColor=#B2C9AB;" edge="1" parent="4-QW9x0aCZNzlzGPrkt--3" source="4-QW9x0aCZNzlzGPrkt--51" target="4-QW9x0aCZNzlzGPrkt--53">
          <mxGeometry relative="1" as="geometry" />
        </mxCell>
        <mxCell id="4-QW9x0aCZNzlzGPrkt--51" value="放款申请接口" style="whiteSpace=wrap;html=1;fillColor=#B2C9AB;strokeColor=#788AA3;fontColor=#46495D;rounded=0;" vertex="1" parent="4-QW9x0aCZNzlzGPrkt--3">
          <mxGeometry x="92.5" y="880" width="78.75" height="50" as="geometry" />
        </mxCell>
        <mxCell id="4-QW9x0aCZNzlzGPrkt--53" value="需不需要做额度有效期限制" style="whiteSpace=wrap;html=1;fillColor=#f8cecc;strokeColor=#b85450;rounded=0;fontFamily=Helvetica;fontSize=11;labelBackgroundColor=default;" vertex="1" parent="4-QW9x0aCZNzlzGPrkt--3">
          <mxGeometry x="69.06" y="960" width="125.62" height="30" as="geometry" />
        </mxCell>
        <mxCell id="4-QW9x0aCZNzlzGPrkt--4" value="lendtrade" style="swimlane;startSize=20;html=1;labelBackgroundColor=none;fillColor=#B2C9AB;strokeColor=#788AA3;fontColor=#46495D;" vertex="1" parent="4-QW9x0aCZNzlzGPrkt--1">
          <mxGeometry x="470" y="20" width="170" height="1190" as="geometry" />
        </mxCell>
        <mxCell id="4-QW9x0aCZNzlzGPrkt--32" value="" style="edgeStyle=orthogonalEdgeStyle;shape=connector;curved=0;rounded=1;orthogonalLoop=1;jettySize=auto;html=1;strokeColor=#788AA3;align=center;verticalAlign=middle;fontFamily=Helvetica;fontSize=11;fontColor=#46495D;labelBackgroundColor=default;endArrow=classic;fillColor=#B2C9AB;" edge="1" parent="4-QW9x0aCZNzlzGPrkt--4" source="4-QW9x0aCZNzlzGPrkt--23" target="4-QW9x0aCZNzlzGPrkt--31">
          <mxGeometry relative="1" as="geometry" />
        </mxCell>
        <mxCell id="4-QW9x0aCZNzlzGPrkt--31" value="放款结果消息回调" style="whiteSpace=wrap;html=1;fillColor=#B2C9AB;strokeColor=#788AA3;fontColor=#46495D;rounded=0;fontFamily=Helvetica;fontSize=11;labelBackgroundColor=default;" vertex="1" parent="4-QW9x0aCZNzlzGPrkt--4">
          <mxGeometry x="45.63" y="410" width="78.75" height="50" as="geometry" />
        </mxCell>
        <mxCell id="4-QW9x0aCZNzlzGPrkt--17" value="放款申请发起" style="whiteSpace=wrap;html=1;fillColor=#B2C9AB;strokeColor=#788AA3;fontColor=#46495D;rounded=0;" vertex="1" parent="4-QW9x0aCZNzlzGPrkt--4">
          <mxGeometry x="-409.99" y="330" width="80" height="50" as="geometry" />
        </mxCell>
        <mxCell id="4-QW9x0aCZNzlzGPrkt--20" value="放款申请接口" style="whiteSpace=wrap;html=1;fillColor=#B2C9AB;strokeColor=#788AA3;fontColor=#46495D;rounded=0;" vertex="1" parent="4-QW9x0aCZNzlzGPrkt--4">
          <mxGeometry x="-174.36" y="330" width="78.75" height="50" as="geometry" />
        </mxCell>
        <mxCell id="4-QW9x0aCZNzlzGPrkt--23" value="放款申请，返回放款主订单号" style="whiteSpace=wrap;html=1;fillColor=#B2C9AB;strokeColor=#788AA3;fontColor=#46495D;rounded=0;fontFamily=Helvetica;fontSize=11;labelBackgroundColor=default;" vertex="1" parent="4-QW9x0aCZNzlzGPrkt--4">
          <mxGeometry x="45.63" y="330" width="78.75" height="50" as="geometry" />
        </mxCell>
        <mxCell id="4-QW9x0aCZNzlzGPrkt--21" style="edgeStyle=orthogonalEdgeStyle;shape=connector;curved=0;rounded=1;orthogonalLoop=1;jettySize=auto;html=1;strokeColor=#788AA3;align=center;verticalAlign=middle;fontFamily=Helvetica;fontSize=11;fontColor=#46495D;labelBackgroundColor=default;endArrow=classic;fillColor=#B2C9AB;" edge="1" parent="4-QW9x0aCZNzlzGPrkt--4" source="4-QW9x0aCZNzlzGPrkt--17" target="4-QW9x0aCZNzlzGPrkt--20">
          <mxGeometry relative="1" as="geometry" />
        </mxCell>
        <mxCell id="4-QW9x0aCZNzlzGPrkt--22" value="得物放款申请流水号" style="edgeLabel;html=1;align=center;verticalAlign=middle;resizable=0;points=[];strokeColor=#788AA3;fontFamily=Helvetica;fontSize=11;fontColor=#46495D;labelBackgroundColor=default;fillColor=#B2C9AB;" vertex="1" connectable="0" parent="4-QW9x0aCZNzlzGPrkt--21">
          <mxGeometry x="-0.3189" y="1" relative="1" as="geometry">
            <mxPoint x="17" y="1" as="offset" />
          </mxGeometry>
        </mxCell>
        <mxCell id="4-QW9x0aCZNzlzGPrkt--24" style="edgeStyle=orthogonalEdgeStyle;shape=connector;curved=0;rounded=1;orthogonalLoop=1;jettySize=auto;html=1;strokeColor=#788AA3;align=center;verticalAlign=middle;fontFamily=Helvetica;fontSize=11;fontColor=#46495D;labelBackgroundColor=default;endArrow=classic;fillColor=#B2C9AB;" edge="1" parent="4-QW9x0aCZNzlzGPrkt--4" source="4-QW9x0aCZNzlzGPrkt--20" target="4-QW9x0aCZNzlzGPrkt--23">
          <mxGeometry relative="1" as="geometry" />
        </mxCell>
        <mxCell id="4-QW9x0aCZNzlzGPrkt--9" style="edgeStyle=orthogonalEdgeStyle;rounded=0;orthogonalLoop=1;jettySize=auto;html=1;strokeColor=#788AA3;fontColor=#46495D;fillColor=#B2C9AB;" edge="1" parent="4-QW9x0aCZNzlzGPrkt--1" source="4-QW9x0aCZNzlzGPrkt--5" target="4-QW9x0aCZNzlzGPrkt--8">
          <mxGeometry relative="1" as="geometry" />
        </mxCell>
        <mxCell id="4-QW9x0aCZNzlzGPrkt--11" value="" style="edgeStyle=orthogonalEdgeStyle;rounded=0;orthogonalLoop=1;jettySize=auto;html=1;strokeColor=#788AA3;fontColor=#46495D;fillColor=#B2C9AB;" edge="1" parent="4-QW9x0aCZNzlzGPrkt--1" source="4-QW9x0aCZNzlzGPrkt--5" target="4-QW9x0aCZNzlzGPrkt--10">
          <mxGeometry relative="1" as="geometry" />
        </mxCell>
        <mxCell id="4-QW9x0aCZNzlzGPrkt--18" value="" style="edgeStyle=orthogonalEdgeStyle;rounded=1;orthogonalLoop=1;jettySize=auto;html=1;strokeColor=#788AA3;fontColor=#46495D;fillColor=#B2C9AB;curved=0;" edge="1" parent="4-QW9x0aCZNzlzGPrkt--1" source="4-QW9x0aCZNzlzGPrkt--10" target="4-QW9x0aCZNzlzGPrkt--17">
          <mxGeometry relative="1" as="geometry" />
        </mxCell>
        <mxCell id="4-QW9x0aCZNzlzGPrkt--19" value="授信审核通过" style="edgeLabel;html=1;align=center;verticalAlign=middle;resizable=0;points=[];strokeColor=#788AA3;fontColor=#46495D;fillColor=#B2C9AB;" vertex="1" connectable="0" parent="4-QW9x0aCZNzlzGPrkt--18">
          <mxGeometry x="0.072" y="1" relative="1" as="geometry">
            <mxPoint as="offset" />
          </mxGeometry>
        </mxCell>
        <mxCell id="4-QW9x0aCZNzlzGPrkt--30" style="edgeStyle=orthogonalEdgeStyle;shape=connector;curved=0;rounded=1;orthogonalLoop=1;jettySize=auto;html=1;entryX=0;entryY=0.5;entryDx=0;entryDy=0;strokeColor=#788AA3;align=center;verticalAlign=middle;fontFamily=Helvetica;fontSize=11;fontColor=#46495D;labelBackgroundColor=default;endArrow=classic;fillColor=#B2C9AB;" edge="1" parent="4-QW9x0aCZNzlzGPrkt--1" source="4-QW9x0aCZNzlzGPrkt--27" target="4-QW9x0aCZNzlzGPrkt--29">
          <mxGeometry relative="1" as="geometry" />
        </mxCell>
        <mxCell id="4-QW9x0aCZNzlzGPrkt--57" value="得物放款申请流水号" style="edgeLabel;html=1;align=center;verticalAlign=middle;resizable=0;points=[];strokeColor=#788AA3;fontFamily=Helvetica;fontSize=11;fontColor=#46495D;labelBackgroundColor=default;fillColor=#B2C9AB;" vertex="1" connectable="0" parent="4-QW9x0aCZNzlzGPrkt--30">
          <mxGeometry x="-0.5034" relative="1" as="geometry">
            <mxPoint x="32" as="offset" />
          </mxGeometry>
        </mxCell>
        <mxCell id="4-QW9x0aCZNzlzGPrkt--28" value="" style="edgeStyle=orthogonalEdgeStyle;shape=connector;curved=0;rounded=1;orthogonalLoop=1;jettySize=auto;html=1;strokeColor=#788AA3;align=center;verticalAlign=middle;fontFamily=Helvetica;fontSize=11;fontColor=#46495D;labelBackgroundColor=default;endArrow=classic;fillColor=#B2C9AB;" edge="1" parent="4-QW9x0aCZNzlzGPrkt--1" source="4-QW9x0aCZNzlzGPrkt--17" target="4-QW9x0aCZNzlzGPrkt--27">
          <mxGeometry relative="1" as="geometry" />
        </mxCell>
        <mxCell id="4-QW9x0aCZNzlzGPrkt--26" value="" style="edgeStyle=orthogonalEdgeStyle;shape=connector;curved=0;rounded=1;orthogonalLoop=1;jettySize=auto;html=1;strokeColor=#788AA3;align=center;verticalAlign=middle;fontFamily=Helvetica;fontSize=11;fontColor=#46495D;labelBackgroundColor=default;endArrow=classic;fillColor=#B2C9AB;" edge="1" parent="4-QW9x0aCZNzlzGPrkt--1" source="4-QW9x0aCZNzlzGPrkt--20" target="4-QW9x0aCZNzlzGPrkt--25">
          <mxGeometry relative="1" as="geometry" />
        </mxCell>
        <mxCell id="4-QW9x0aCZNzlzGPrkt--37" style="edgeStyle=orthogonalEdgeStyle;shape=connector;curved=0;rounded=1;orthogonalLoop=1;jettySize=auto;html=1;entryX=0;entryY=0.5;entryDx=0;entryDy=0;strokeColor=#788AA3;align=center;verticalAlign=middle;fontFamily=Helvetica;fontSize=11;fontColor=#46495D;labelBackgroundColor=default;endArrow=classic;fillColor=#B2C9AB;" edge="1" parent="4-QW9x0aCZNzlzGPrkt--1" source="4-QW9x0aCZNzlzGPrkt--33" target="4-QW9x0aCZNzlzGPrkt--34">
          <mxGeometry relative="1" as="geometry" />
        </mxCell>
        <mxCell id="4-QW9x0aCZNzlzGPrkt--55" value="进件单号" style="edgeLabel;html=1;align=center;verticalAlign=middle;resizable=0;points=[];strokeColor=#788AA3;fontFamily=Helvetica;fontSize=11;fontColor=#46495D;labelBackgroundColor=default;fillColor=#B2C9AB;" vertex="1" connectable="0" parent="4-QW9x0aCZNzlzGPrkt--37">
          <mxGeometry x="-0.1918" y="2" relative="1" as="geometry">
            <mxPoint as="offset" />
          </mxGeometry>
        </mxCell>
        <mxCell id="4-QW9x0aCZNzlzGPrkt--43" style="edgeStyle=orthogonalEdgeStyle;shape=connector;curved=0;rounded=1;orthogonalLoop=1;jettySize=auto;html=1;entryX=1;entryY=0.5;entryDx=0;entryDy=0;strokeColor=#788AA3;align=center;verticalAlign=middle;fontFamily=Helvetica;fontSize=11;fontColor=#46495D;labelBackgroundColor=default;endArrow=classic;fillColor=#B2C9AB;" edge="1" parent="4-QW9x0aCZNzlzGPrkt--1" source="4-QW9x0aCZNzlzGPrkt--40" target="4-QW9x0aCZNzlzGPrkt--41">
          <mxGeometry relative="1" as="geometry" />
        </mxCell>
        <mxCell id="4-QW9x0aCZNzlzGPrkt--52" style="edgeStyle=orthogonalEdgeStyle;shape=connector;curved=0;rounded=1;orthogonalLoop=1;jettySize=auto;html=1;entryX=0;entryY=0.5;entryDx=0;entryDy=0;strokeColor=#788AA3;align=center;verticalAlign=middle;fontFamily=Helvetica;fontSize=11;fontColor=#46495D;labelBackgroundColor=default;endArrow=classic;fillColor=#B2C9AB;" edge="1" parent="4-QW9x0aCZNzlzGPrkt--1" source="4-QW9x0aCZNzlzGPrkt--46" target="4-QW9x0aCZNzlzGPrkt--51">
          <mxGeometry relative="1" as="geometry" />
        </mxCell>
        <mxCell id="4-QW9x0aCZNzlzGPrkt--56" value="得物放款申请流水号" style="edgeLabel;html=1;align=center;verticalAlign=middle;resizable=0;points=[];strokeColor=#788AA3;fontFamily=Helvetica;fontSize=11;fontColor=#46495D;labelBackgroundColor=default;fillColor=#B2C9AB;" vertex="1" connectable="0" parent="4-QW9x0aCZNzlzGPrkt--52">
          <mxGeometry x="-0.2732" y="1" relative="1" as="geometry">
            <mxPoint x="21" y="1" as="offset" />
          </mxGeometry>
        </mxCell>
      </root>
    </mxGraphModel>
  </diagram>
</mxfile>
